<svg width="24" height="24" fill="none" xmlns="http://www.w3.org/2000/svg"><path d="M1.387 11.64s10.01-4.26 13.483-5.758c1.33-.6 5.844-2.519 5.844-2.519s2.084-.84 1.91 1.2c-.058.84-.521 3.78-.984 6.959-.695 4.499-1.446 9.417-1.446 9.417s-.116 1.38-1.1 1.618c-.983.241-2.603-.84-2.892-1.079-.232-.18-4.34-2.879-5.844-4.199-.405-.36-.868-1.079.057-1.919 2.084-1.979 4.572-4.438 6.076-5.998.695-.72 1.388-2.4-1.504-.36-4.109 2.938-8.16 5.697-8.16 5.697s-.925.6-2.661.06C2.429 14.22.405 13.5.405 13.5s-1.39-.9.982-1.86z" fill="#000"/></svg>