<svg width="49" height="48" fill="none" xmlns="http://www.w3.org/2000/svg"><rect x=".994" width="48" height="48" rx="12" fill="#F4F4F4"/><g clip-path="url(#clip0_4339_15282)"><path d="M14.994 17.263h-1 1zm17.225 14.85l.483.876-.483-.876zm.56.053l-.638.77.638-.77zm-2.98 1.017l.483-.876-.484.876zm-1.994-1.1l-.483.875.483-.876zm-.483 0l-.484-.876.484.875zm-2.477 1.1l.483-.876-.483.876zm.483 0l-.483-.876.483.876zm-4.376.139l-.638-.77.638.77zm1.956-1.209l.483-.875-.483.875zm-.56.053l-.639-.77.638.77zM15.993 19.5v-2.237h-2V19.5h2zm0-2.237c0-.53.11-1.147.375-1.594.23-.384.576-.669 1.256-.669v-2c-1.451 0-2.42.715-2.974 1.647-.517.868-.657 1.884-.657 2.616h2zM17.625 15c.406 0 .651.103.811.217.17.12.31.301.422.546.238.517.275 1.152.275 1.5h2c0-.415-.033-1.41-.457-2.335a3.317 3.317 0 00-1.08-1.34c-.532-.379-1.192-.588-1.97-.588v2zm1.508 2.263v15.674h2V17.263h-2zm3.292 15.726l1.936 1.07.967-1.752-1.937-1.069-.966 1.75zm4.897-.031l1.993 1.1.967-1.75-1.994-1.101-.966 1.75zm8.672-.021V17.419h-2v15.518h2zm0-15.518c0-.806-.178-1.88-.792-2.784-.653-.962-1.74-1.635-3.304-1.635v2c.911 0 1.374.352 1.65.758.314.464.446 1.099.446 1.66h2zM31.898 13H17.626v2h14.271v-2zM21.59 34.092l1.395-1.156-1.276-1.54-1.395 1.156 1.276 1.54zm4.222-.034l1.993-1.1-.967-1.751-1.993 1.1.967 1.751zm4.953 0l1.937-1.07-.967-1.75-1.937 1.07.967 1.75zm1.376-1.122l1.396 1.156 1.276-1.54-1.396-1.156-1.276 1.54zM15.494 21h2.5v-2h-2.5v2zm18.5 11.937a.5.5 0 01.819-.385l-1.276 1.54c.978.81 2.457.114 2.457-1.155h-2zm-1.292.052a.5.5 0 01-.56-.053l1.275-1.54a1.5 1.5 0 00-1.682-.158l.967 1.75zm-3.387 1.07a1.5 1.5 0 001.45 0l-.967-1.752a.5.5 0 01.484 0l-.967 1.751zm-1.027-2.852a1.5 1.5 0 00-1.45 0l.967 1.75a.5.5 0 01-.483 0l.966-1.75zm-3.927 2.851a1.5 1.5 0 001.45 0l-.966-1.75a.5.5 0 01.483 0l-.966 1.75zm-5.228-1.121c0 1.27 1.479 1.965 2.457 1.155l-1.276-1.54a.5.5 0 01.819.385h-2zm4.258-1.699a1.5 1.5 0 00-1.681.158l1.275 1.54a.5.5 0 01-.56.053l.966-1.751zM13.994 19.5a1.5 1.5 0 001.5 1.5v-2a.5.5 0 01.5.5h-2z" fill="#45BF76"/><path d="M23.415 21h8.42m-8.42 4.351h5.263" stroke="#45BF76" stroke-width="2"/></g><defs><clipPath id="clip0_4339_15282"><path d="M12.994 14a2 2 0 012-2h20a2 2 0 012 2v20a2 2 0 01-2 2h-20a2 2 0 01-2-2V14z" fill="#fff"/></clipPath></defs></svg>