<svg width="161" height="160" fill="none" xmlns="http://www.w3.org/2000/svg"><rect x="45" y="45" width="60" height="60" rx="12" fill="#FB5F5F"/><g filter="url(#filter0_bi_4665_247)"><path d="M54 67c0-6.627 5.373-12 12-12h36c6.627 0 12 5.373 12 12v36c0 6.627-5.373 12-12 12H66c-6.627 0-12-5.373-12-12V67z" fill="#F1F7FF" fill-opacity=".22"/></g><path d="M95.567 76.414a2 2 0 00-2.829-2.828l2.829 2.828zM72.586 93.738a2 2 0 102.828 2.829l-2.828-2.829zm20.152-20.152L72.586 93.738l2.828 2.829 20.153-20.153-2.829-2.828z" fill="#fff"/><path d="M92.738 96.567a2 2 0 002.829-2.829l-2.829 2.829zM75.414 73.586a2 2 0 10-2.828 2.828l2.828-2.828zm20.153 20.152L75.414 73.586l-2.828 2.828 20.152 20.153 2.829-2.829z" fill="#fff"/><defs><filter id="filter0_bi_4665_247" x="34.934" y="35.934" width="98.132" height="98.132" filterUnits="userSpaceOnUse" color-interpolation-filters="sRGB"><feFlood flood-opacity="0" result="BackgroundImageFix"/><feGaussianBlur in="BackgroundImage" stdDeviation="9.533"/><feComposite in2="SourceAlpha" operator="in" result="effect1_backgroundBlur_4665_247"/><feBlend in="SourceGraphic" in2="effect1_backgroundBlur_4665_247" result="shape"/><feColorMatrix in="SourceAlpha" values="0 0 0 0 0 0 0 0 0 0 0 0 0 0 0 0 0 0 127 0" result="hardAlpha"/><feOffset dy=".829"/><feGaussianBlur stdDeviation="14.092"/><feComposite in2="hardAlpha" operator="arithmetic" k2="-1" k3="1"/><feColorMatrix values="0 0 0 0 0.0726736 0 0 0 0 0.511496 0 0 0 0 0.758333 0 0 0 0.12 0"/><feBlend in2="shape" result="effect2_innerShadow_4665_247"/></filter></defs></svg>