<svg width="24" height="24" fill="none" xmlns="http://www.w3.org/2000/svg"><path fill-rule="evenodd" clip-rule="evenodd" d="M18 6H6a1 1 0 00-1 1v10a1 1 0 001 1h12a1 1 0 001-1V7a1 1 0 00-1-1zM6 4a3 3 0 00-3 3v10a3 3 0 003 3h12a3 3 0 003-3V7a3 3 0 00-3-3H6z" fill="#AFAFAF"/><path fill-rule="evenodd" clip-rule="evenodd" d="M16 17.156L11 14.5V12l3 1.844V8.489l-.004-.078a3.996 3.996 0 00-.033-.317 3.843 3.843 0 00-.257-.95c-.143-.332-.335-.613-.586-.808C12.884 6.152 12.54 6 12 6V4c.96 0 1.741.285 2.348.757.593.461.963 1.056 1.196 1.599a5.83 5.83 0 01.4 1.456 5.992 5.992 0 01.056.664v8.68z" fill="#AFAFAF"/><path fill-rule="evenodd" clip-rule="evenodd" d="M8 6.738L13 9.5v2l-3-1.449v5.46l.004.078c.005.073.014.183.033.316.039.273.115.619.257.95.143.333.335.613.586.809.236.184.58.336 1.12.336v2c-.96 0-1.741-.285-2.348-.758-.593-.46-.964-1.056-1.196-1.598a5.833 5.833 0 01-.4-1.456A5.981 5.981 0 018 15.524V6.738z" fill="#AFAFAF"/></svg>