<svg width="56" height="21" fill="none" xmlns="http://www.w3.org/2000/svg"><g clip-path="url(#clip0_4339_15081)" fill="#898989"><path d="M20.821 15.78c.232.285.458.573.703.88-.6.19-1.173.372-1.747.552-3.941 1.24-7.883 2.478-11.823 3.72-.053.016-.132-.01-.161.068.012-.126.122-.128.205-.154 3-.949 6.003-1.885 9.002-2.834 1.369-.433 2.74-.857 4.108-1.294.294-.093.295-.103.099-.349-.142-.178-.282-.357-.427-.533-.132-.16-.244-.332-.286-.534-.044-.211-.163-.274-.368-.265a8.23 8.23 0 01-1.85-.141c-.931-.17-1.796-.504-2.546-1.097a3.595 3.595 0 01-1.3-2.073c-.263-1.157-.133-2.265.53-3.275.46-.7 1.095-1.2 1.85-1.554a6.433 6.433 0 012.757-.608c.776 0 1.553-.039 2.315.174.666.185.67.174.67.868-.001.455.004.91-.003 1.365-.005.284-.07.329-.327.207a5.152 5.152 0 00-1.76-.484c-.628-.056-1.223.054-1.764.381-.419.253-.709.62-.827 1.101-.197.801-.147 1.564.436 2.208.482.532 1.119.727 1.814.772.773.05 1.514-.103 2.241-.348.284-.095.285-.095.392.176.018.045.038.09.08.113.396.215.69.561 1.062.84.044-.099.026-.185.026-.267.002-2.173.001-4.347.001-6.52 0-.49.002-.492.503-.492h2.354c.465 0 .48.014.48.47v4.307c0 .085-.008.17.02.299.169-.228.302-.436.444-.638a39.653 39.653 0 011.985-2.6c.16-.193.18-.353.078-.572-.456-.981-.893-1.972-1.337-2.96L26.666.72c-.049-.107-.097-.215-.148-.32-.17-.352-.178-.359-.574-.329-.813.062-1.627.091-2.44.145-.96.063-1.923.11-2.885.167-.695.041-1.392.08-2.088.115-.688.036-1.377.074-2.065.119-.625.04-1.25.074-1.877.108-.774.042-1.548.09-2.322.129-.666.034-1.33.075-1.995.11a420.1 420.1 0 00-2.182.124c-.634.037-1.267.074-1.9.109-.767.041-1.534.083-2.3.129-.61.035-1.22.077-1.83.1-.431.018-.86.076-1.292.06-.077-.003-.156.03-.227-.026.712-.045 1.423-.093 2.135-.134 1.963-.113 3.927-.222 5.891-.332l7.558-.425L23.66.145c.821-.046 1.643-.086 2.464-.143.206-.014.312.032.403.237 1.12 2.516 2.254 5.026 3.384 7.538.05.108.089.195-.012.316a42.38 42.38 0 00-2.6 3.457c-.013.018-.033.031-.053.05-.06-.073-.03-.153-.03-.226-.002-1.561-.004-3.123.002-4.684.002-.183-.045-.239-.233-.237-.91.01-1.82.011-2.73 0-.203-.003-.263.04-.262.255.009 2.275.005 4.551.005 6.826v.281c-.167-.072-.265-.204-.39-.3-.282-.22-.511-.507-.858-.647-.152-.062-.022-.23-.1-.352-.297.088-.604.19-.918.269-.85.212-1.702.27-2.548-.025-1.073-.376-1.602-1.305-1.451-2.543.12-.988.918-1.726 1.968-1.84.933-.1 1.804.096 2.636.508.04.02.074.063.147.038 0-.69-.002-1.385.002-2.08.001-.119-.071-.136-.155-.167-.624-.235-1.273-.315-1.935-.338-1.245-.042-2.46.08-3.597.635-1.254.614-2.13 1.556-2.359 2.968-.346 2.124.657 3.801 2.672 4.565 1.006.381 2.052.494 3.118.464.175-.004.28.007.299.23.018.218.15.408.292.58zm11.503-2.634c.027.06.05.107-.049.137-.657.199-1.312.404-1.968.607-.02.006-.046-.003-.09-.006l1.415-2.274.692 1.536zm5.802-.68c-.218.43-.616.464-1.03.43a.877.877 0 01-.807-.65 1.46 1.46 0 010-.813c.112-.396.45-.632.909-.643.564-.013.832.154 1.005.641-.117.027-.219.043-.315.073-.135.04-.244.063-.331-.1-.069-.127-.214-.146-.356-.12-.157.03-.248.134-.288.278a1.25 1.25 0 00-.007.56c.03.174.142.28.318.297a.354.354 0 00.38-.215c.081-.166.293-.184.539-.036.163.098.027.213-.017.298zm1.376-1.676c-.68 0-1.057.381-1.056 1.065 0 .682.374 1.046 1.073 1.046.68 0 1.049-.38 1.046-1.074-.004-.664-.385-1.037-1.063-1.037zm.41 1.102c0 .005 0 .067-.006.129-.028.26-.167.4-.398.401-.227.002-.37-.136-.41-.393a1.153 1.153 0 01-.001-.348c.04-.267.192-.413.425-.402.232.011.374.17.39.438.003.04 0 .078 0 .175zm2.34-5.919c-.178-1.59-1.07-2.626-2.855-2.594-.917.016-1.835.007-2.752-.002-.177 0-.239.035-.237.227.011.988.006 1.977.006 2.965 0 .995.003 1.991-.004 2.987-.001.155.043.196.195.193.565-.008 1.13.004 1.694-.005.556-.008 1.112.036 1.667-.043 1.194-.171 1.99-.896 2.226-2.067a5.38 5.38 0 00.06-1.661zm-2.028 1.452c-.102.547-.439.823-1.017.858-.211.012-.423 0-.634.014-.144.01-.188-.034-.185-.182.009-.517.003-1.035.003-1.553 0-.517.005-1.035-.003-1.552-.002-.145.037-.197.184-.186.195.016.392.009.587.024.602.046.954.348 1.066.94a4.393 4.393 0 010 1.637zm2.952 3.634c.008.534-.01 1.068.01 1.6.01.236-.12.207-.262.203-.133-.004-.283.048-.27-.194a5.91 5.91 0 00-.044-1.104c-.098.375-.213.746-.286 1.126-.043.222-.184.16-.314.173-.136.012-.231-.002-.268-.172a9.077 9.077 0 00-.33-1.157c0 .365-.013.731.007 1.096.01.208-.064.253-.25.235-.152-.014-.301.043-.29-.223.026-.548.012-1.098.006-1.648-.002-.128.027-.173.166-.176.668-.016.666-.02.833.623.044.17.061.351.165.535l.248-.953c.01-.037.003-.092.026-.112.23-.2.502-.056.755-.082.17-.018.097.148.098.23zm2.138.351c-.02-.353-.22-.562-.583-.578-.336-.015-.673-.002-1.01-.013-.134-.004-.153.054-.151.167.006.282.002.564.002.846 0 .282.007.564-.003.846-.005.139.027.208.18.186a.61.61 0 01.187 0c.22.035.298-.036.287-.274-.02-.46-.006-.46.443-.482a.99.99 0 00.14-.014c.337-.068.528-.327.508-.684zm-.93.278c-.185.018-.186-.09-.169-.193-.006-.143-.031-.263.165-.246.155.012.298.033.3.216.004.186-.144.21-.296.223zm2.872.825c.006.349.013.349-.341.349-.377 0-.752-.004-1.129.002-.12.002-.165-.034-.162-.158.007-.29.002-.58.002-.87 0-.282.007-.564-.002-.846-.005-.135.042-.17.173-.172.467-.008.467-.013.467.459 0 .298.01.596-.004.893-.008.161.052.198.2.19.21-.01.422.003.634-.004.12-.005.16.03.162.157zm.94.193c.004.124-.035.156-.157.16-.497.012-.497.017-.497-.48 0-.455.004-.909-.003-1.362-.002-.14.018-.208.187-.208.468.002.468-.007.468.459v.586c0 .282-.006.564.002.845zm.004-3.632c-.475.503-1.083.696-1.745.762-.195.02-.391.022-.527.029-.514-.018-.966-.048-1.41-.166-1.001-.265-1.442-1.144-1.548-1.928-.016-.12.031-.142.14-.147a44.589 44.589 0 001.525-.096c.154-.013.212.025.248.18.164.685.634.985 1.326.866.328-.057.578-.287.614-.565.033-.254-.144-.504-.458-.64-.347-.15-.72-.21-1.083-.305-.434-.114-.858-.252-1.241-.487-1.162-.713-1.111-2.305.087-2.957.44-.239.914-.321 1.402-.341.676-.03 1.349-.014 1.979.287.618.295.897.82 1.012 1.462.02.107-.005.151-.126.157-.516.023-1.033.052-1.548.091-.14.01-.18-.04-.218-.169-.157-.546-.784-.816-1.306-.57-.175.082-.294.216-.288.42.006.19.135.296.296.358.419.16.866.209 1.294.333.361.104.72.212 1.06.376 1.358.652 1.289 2.233.515 3.05zm1.873 2.239c-.198-.53-.198-.527-.758-.494-.093.005-.14.035-.171.12-.233.63-.47 1.258-.718 1.923.193 0 .358-.008.521.002.11.008.166-.042.176-.138.018-.175.119-.213.274-.196.093.011.19.011.282 0 .148-.017.24.024.258.185.01.08.036.15.144.148.183-.005.366-.001.573-.001-.203-.54-.393-1.045-.58-1.55zm-.375.75c-.105.02-.218.022-.325.009-.071-.01-.027-.073-.015-.113l.175-.577c.066.217.121.389.17.561.012.04.057.108-.005.12zm3.115.61c.003.159-.051.18-.197.195-.307.032-.51-.063-.658-.343-.129-.243-.308-.458-.465-.686l-.042.017c0 .278-.006.558.003.836.004.13-.034.172-.169.173-.446.006-.446.012-.446-.437 0-.478.004-.956-.003-1.433-.002-.13.035-.165.168-.18.314-.036.528.051.68.346.13.252.316.474.513.76 0-.356.005-.651-.003-.945-.004-.125.038-.155.159-.158.456-.01.456-.015.456.446 0 .47-.007.94.004 1.41zm2.17-1.631a.54.54 0 000 .141c.014.124-.04.156-.16.16-.47.013-.469.018-.469.5 0 .29-.004.581.002.871.002.112-.035.145-.147.151-.499.027-.499.031-.499-.456 0-.283-.014-.566.005-.847.013-.197-.063-.248-.237-.224-.046.007-.096-.006-.141.003-.24.045-.28-.068-.28-.285 0-.204.067-.25.256-.238.242.016.485.003.728.003.244 0 .488.014.73-.004.186-.014.237.058.212.225zm.179-2.944c-.015.016-.039.03-.044.048-.25.926-.884 1.437-1.794 1.617a5.09 5.09 0 01-2.532-.114c-.894-.278-1.325-1.175-1.404-1.917-.01-.095.037-.101.108-.105.54-.032 1.08-.063 1.619-.101.126-.01.156.048.182.154.172.713.637 1.017 1.35.89.3-.053.554-.283.588-.534.039-.283-.107-.507-.426-.655-.351-.163-.734-.217-1.103-.316a5.223 5.223 0 01-1.12-.417c-.617-.33-.99-.828-.965-1.543.026-.753.432-1.275 1.115-1.576.62-.273 1.28-.274 1.941-.25.258.008.514.044.766.11.92.237 1.41.81 1.507 1.787-.57.033-1.141.062-1.71.101-.11.008-.155-.024-.178-.127-.139-.617-.642-.736-1.14-.668-.258.035-.448.22-.47.429-.02.189.111.353.388.436.607.181 1.237.276 1.835.494.566.206 1.071.49 1.335 1.07.063.14.102.29.152.434-.092.006-.094-.07-.108-.126-.16-.628-.598-.993-1.168-1.23-.531-.22-1.093-.34-1.65-.468-.192-.044-.386-.082-.557-.183-.163-.096-.3-.221-.277-.428.022-.2.134-.35.325-.428.406-.168 1.174-.096 1.364.546.041.137.128.188.262.18.438-.024.876-.041 1.313-.08.164-.015.218-.078.18-.243-.147-.653-.501-1.135-1.148-1.348a4.333 4.333 0 00-2.796.002c-.658.22-1.09.67-1.2 1.38-.088.564.098 1.035.526 1.408.44.384.988.535 1.533.688.354.099.722.147 1.06.305.137.064.266.135.355.263.274.396.038.93-.466 1.03a1.68 1.68 0 01-.702-.009c-.4-.094-.63-.376-.73-.755-.054-.2-.156-.27-.35-.253-.42.039-.844.044-1.266.086-.171.017-.212.08-.18.238.181.857.62 1.498 1.506 1.72.903.225 1.815.257 2.711-.048.63-.215 1.075-.63 1.3-1.268.03-.087.029-.209.163-.226z"/><path d="M10.665 9.302c-.013-.46-.268-.773-.757-.925-.372-.116-.755-.108-1.139-.117-.13-.004-.13.068-.13.163.003.32.001.64.001.962v.986c0 .08-.009.154.113.155.408.001.814.005 1.205-.137.498-.18.723-.527.707-1.087zm0 0c-.013-.46-.268-.773-.757-.925-.372-.116-.755-.108-1.139-.117-.13-.004-.13.068-.13.163.003.32.001.64.001.962v.986c0 .08-.009.154.113.155.408.001.814.005 1.205-.137.498-.18.723-.527.707-1.087zm0 0c-.013-.46-.268-.773-.757-.925-.372-.116-.755-.108-1.139-.117-.13-.004-.13.068-.13.163.003.32.001.64.001.962v.986c0 .08-.009.154.113.155.408.001.814.005 1.205-.137.498-.18.723-.527.707-1.087zm0 0c-.013-.46-.268-.773-.757-.925-.372-.116-.755-.108-1.139-.117-.13-.004-.13.068-.13.163.003.32.001.64.001.962v.986c0 .08-.009.154.113.155.408.001.814.005 1.205-.137.498-.18.723-.527.707-1.087zm0 0c-.013-.46-.268-.773-.757-.925-.372-.116-.755-.108-1.139-.117-.13-.004-.13.068-.13.163.003.32.001.64.001.962v.986c0 .08-.009.154.113.155.408.001.814.005 1.205-.137.498-.18.723-.527.707-1.087zm0 0c-.013-.46-.268-.773-.757-.925-.372-.116-.755-.108-1.139-.117-.13-.004-.13.068-.13.163.003.32.001.64.001.962v.986c0 .08-.009.154.113.155.408.001.814.005 1.205-.137.498-.18.723-.527.707-1.087zm19.247-1.525C28.78 5.265 27.648 2.755 26.526.239c-.091-.205-.198-.25-.403-.237-.82.058-1.643.098-2.463.143l-7.535.423-7.558.425c-1.964.11-3.928.22-5.891.332-.712.04-1.423.089-2.135.134v.094c.236.458.379.953.556 1.433C3.278 8.907 5.454 14.83 7.63 20.753c.03.08.045.165.068.247h.094c.029-.078.108-.052.16-.068 3.942-1.242 7.883-2.48 11.824-3.72.574-.18 1.147-.362 1.747-.552-.245-.307-.471-.595-.703-.88-.142-.172-.274-.362-.292-.58-.019-.223-.123-.234-.3-.23-1.065.03-2.111-.083-3.117-.464-2.015-.764-3.018-2.44-2.672-4.565.23-1.412 1.105-2.354 2.36-2.968 1.135-.556 2.351-.677 3.596-.635.662.023 1.311.103 1.935.338.084.031.156.048.155.167-.004.695-.002 1.39-.002 2.08-.073.025-.107-.018-.147-.038-.832-.412-1.703-.609-2.636-.508-1.05.114-1.848.852-1.968 1.84-.15 1.238.378 2.167 1.451 2.543.846.295 1.698.237 2.548.025.314-.079.621-.181.919-.27.077.122-.053.29.1.353.346.14.575.428.858.647.124.096.222.228.39.3v-.28c0-2.276.003-4.552-.006-6.827 0-.215.06-.258.261-.255.91.011 1.82.01 2.731 0 .188-.002.235.054.233.237a812.589 812.589 0 00-.001 4.684c0 .072-.032.153.03.226.02-.019.04-.032.051-.05A42.38 42.38 0 0129.9 8.093c.101-.12.061-.208.012-.316zM27.51 4.303c-.15.66-.734 1.179-1.453 1.298-.517.085-1.016.041-1.482-.21-.73-.392-1.042-1.135-.86-2.023.147-.717.824-1.282 1.618-1.344.093-.007.188-.001.282-.001.445-.026.853.088 1.218.342.603.418.855 1.151.677 1.938zM5.675 14.843c-.155.001-.194-.042-.193-.195.006-1.333.003-2.666.003-4 0-1.325.002-2.65-.002-3.975 0-.149.014-.222.195-.22 1.42.022 2.839-.033 4.257.039.787.04 1.553.183 2.275.518.88.406 1.425 1.06 1.508 2.045.088 1.04-.29 1.873-1.16 2.462-.75.506-1.605.684-2.485.77-.39.038-.783.058-1.175.038-.17-.01-.226.033-.223.215.012.698 0 1.396.009 2.094.001.165-.045.21-.21.209-.933-.008-1.866-.007-2.8 0zM8.64 9.385v.986c0 .08-.009.154.113.155.408.001.814.005 1.205-.137.498-.18.723-.527.707-1.087-.013-.46-.268-.773-.757-.925-.372-.116-.755-.108-1.139-.117-.13-.004-.13.068-.13.163.003.32.001.64.001.962zm2.025-.083c-.013-.46-.268-.773-.757-.925-.372-.116-.755-.108-1.139-.117-.13-.004-.13.068-.13.163.003.32.001.64.001.962v.986c0 .08-.009.154.113.155.408.001.814.005 1.205-.137.498-.18.723-.527.707-1.087zm0 0c-.013-.46-.268-.773-.757-.925-.372-.116-.755-.108-1.139-.117-.13-.004-.13.068-.13.163.003.32.001.64.001.962v.986c0 .08-.009.154.113.155.408.001.814.005 1.205-.137.498-.18.723-.527.707-1.087zm0 0c-.013-.46-.268-.773-.757-.925-.372-.116-.755-.108-1.139-.117-.13-.004-.13.068-.13.163.003.32.001.64.001.962v.986c0 .08-.009.154.113.155.408.001.814.005 1.205-.137.498-.18.723-.527.707-1.087zm0 0c-.013-.46-.268-.773-.757-.925-.372-.116-.755-.108-1.139-.117-.13-.004-.13.068-.13.163.003.32.001.64.001.962v.986c0 .08-.009.154.113.155.408.001.814.005 1.205-.137.498-.18.723-.527.707-1.087zm44.497-1.957v.753c-.015.016-.039.03-.044.048-.25.926-.884 1.437-1.794 1.617a5.09 5.09 0 01-2.532-.114c-.894-.278-1.325-1.175-1.404-1.917-.01-.095.037-.101.108-.105.54-.032 1.08-.063 1.619-.101.126-.01.156.048.182.154.172.713.637 1.017 1.35.89.3-.053.554-.283.588-.534.039-.283-.107-.507-.426-.655-.351-.163-.734-.217-1.103-.316a5.223 5.223 0 01-1.12-.417c-.617-.33-.99-.828-.965-1.543.026-.753.432-1.275 1.115-1.576.62-.273 1.28-.274 1.941-.25.258.008.514.044.766.11.92.237 1.41.81 1.507 1.787-.57.033-1.141.062-1.71.101-.11.008-.155-.024-.178-.127-.139-.617-.642-.736-1.14-.668-.258.035-.448.22-.47.429-.02.189.111.353.388.436.607.181 1.237.276 1.835.494.566.206 1.071.49 1.335 1.07.063.14.102.29.152.434z"/><path d="M35.344 5.799c-.031-.116-.118-.16-.227-.172-.07-.008-.14-.019-.21-.016-.549.025-1.096.066-1.623.234-.297.095-.608.167-.831.412-1.574 1.72-3.057 3.512-4.376 5.436a51.945 51.945 0 00-2.487 4.015c-.15.268-.245.285-.47.09l-.39-.34c-.679-.594-1.359-1.187-2.036-1.782-.13-.114-.267-.177-.424-.074-.371.242-.707.523-.931.913-.194.338-.175.53.07.838.767.963 1.536 1.924 2.302 2.888.414.523.954.77 1.618.762.133-.01.266-.011.398-.029.51-.068.904-.255 1.175-.76 1.035-1.925 2.14-3.81 3.294-5.667 1.453-2.34 2.907-4.68 5.056-6.476a.25.25 0 00.092-.272zm6.908.174c-.178-1.59-1.07-2.626-2.855-2.594-.917.016-1.835.007-2.752-.002-.177 0-.239.035-.237.227.011.988.006 1.977.006 2.965 0 .995.003 1.991-.004 2.987-.001.155.043.196.195.193.565-.008 1.13.004 1.694-.005.556-.008 1.112.036 1.667-.043 1.194-.171 1.99-.896 2.226-2.067a5.38 5.38 0 00.06-1.661zm-2.028 1.452c-.102.547-.439.823-1.017.858-.211.012-.423 0-.634.014-.144.01-.188-.034-.185-.182.009-.517.003-1.035.003-1.553 0-.517.005-1.035-.003-1.552-.002-.145.037-.197.184-.186.195.016.392.009.587.024.602.046.954.348 1.066.94a4.393 4.393 0 010 1.637zM48.2 9.074c-.475.503-1.083.696-1.745.762-.195.02-.391.022-.527.029-.514-.018-.966-.048-1.41-.166-1.001-.265-1.442-1.144-1.548-1.928-.016-.12.031-.142.14-.147a44.589 44.589 0 001.525-.096c.154-.013.212.025.248.18.164.685.634.985 1.326.866.328-.057.578-.287.614-.565.033-.254-.144-.504-.458-.64-.347-.15-.72-.21-1.083-.305-.434-.114-.858-.252-1.241-.487-1.162-.713-1.111-2.305.087-2.957.44-.239.914-.321 1.402-.341.676-.03 1.349-.014 1.979.287.618.295.897.82 1.012 1.462.02.107-.005.151-.126.157-.516.023-1.033.052-1.548.091-.14.01-.18-.04-.218-.169-.157-.546-.784-.816-1.306-.57-.175.082-.294.216-.288.42.006.19.135.296.296.358.419.16.866.209 1.294.333.361.104.72.212 1.06.376 1.358.652 1.289 2.233.515 3.05zm-5.013 3.586c.008.235-.12.206-.263.202-.133-.004-.283.048-.27-.194a5.91 5.91 0 00-.044-1.104c-.098.375-.213.746-.286 1.126-.043.222-.184.16-.314.173-.136.012-.231-.002-.268-.172a9.077 9.077 0 00-.33-1.157c0 .365-.013.731.007 1.096.01.208-.064.253-.25.235-.152-.014-.301.043-.29-.223.026-.548.012-1.098.006-1.648-.002-.128.027-.173.166-.176.668-.016.666-.02.833.623.044.17.061.351.165.535l.248-.953c.01-.037.003-.092.026-.112.23-.2.502-.056.755-.082.17-.018.097.148.098.23.008.534-.01 1.068.01 1.6zm9.429.208c-.307.032-.51-.063-.658-.343-.129-.243-.308-.458-.465-.686l-.042.017c0 .278-.006.558.003.836.004.13-.034.172-.169.173-.446.006-.446.012-.446-.437 0-.478.004-.956-.003-1.433-.002-.13.035-.165.168-.18.314-.036.528.051.68.346.13.252.316.474.513.76 0-.356.005-.651-.003-.945-.004-.125.038-.155.159-.158.456-.01.456-.015.456.446 0 .47-.007.94.004 1.41.003.158-.051.18-.197.194zM39.502 10.79c-.68 0-1.057.381-1.056 1.065 0 .682.374 1.046 1.073 1.046.68 0 1.049-.38 1.046-1.074-.004-.664-.385-1.037-1.063-1.037zm.41 1.102c0 .005 0 .067-.006.129-.028.26-.167.4-.398.401-.227.002-.37-.136-.41-.393a1.153 1.153 0 01-.001-.348c.04-.267.192-.413.425-.402.232.011.374.17.39.438.003.04 0 .078 0 .175zm10.161-.579c-.198-.53-.198-.527-.758-.494-.093.005-.14.035-.171.12-.233.63-.47 1.258-.718 1.923.193 0 .358-.008.521.002.11.008.166-.042.176-.138.018-.175.119-.213.274-.196.093.011.19.011.282 0 .148-.017.24.024.258.185.01.08.036.15.144.148.183-.005.366-.001.573-.001-.203-.54-.393-1.045-.58-1.55zm-.375.75c-.105.02-.218.022-.325.009-.071-.01-.027-.073-.015-.113l.175-.577c.066.217.121.389.17.561.012.04.057.108-.005.12zm-11.572.403c-.218.43-.616.464-1.03.43a.877.877 0 01-.807-.65 1.46 1.46 0 010-.813c.112-.396.45-.632.909-.643.564-.013.832.154 1.005.641-.117.027-.219.043-.315.073-.135.04-.244.063-.331-.1-.069-.127-.214-.146-.356-.12-.157.03-.248.134-.288.278a1.25 1.25 0 00-.007.56c.03.174.142.28.318.297a.354.354 0 00.38-.215c.081-.166.293-.184.539-.036.163.098.027.213-.017.298zm7.188-1.056c-.02-.353-.22-.562-.583-.578-.336-.015-.673-.002-1.01-.013-.134-.004-.153.054-.151.167.006.282.002.564.002.846 0 .282.007.564-.003.846-.005.139.027.208.18.186a.61.61 0 01.187 0c.22.035.298-.036.287-.274-.02-.46-.006-.46.443-.482a.99.99 0 00.14-.014c.337-.068.528-.327.508-.684zm-.93.278c-.185.018-.186-.09-.169-.193-.006-.143-.031-.263.165-.246.155.012.298.033.3.216.004.186-.144.21-.296.223zm-12.109 1.595c-.657.199-1.312.404-1.968.607-.02.006-.046-.003-.09-.006l1.415-2.274.692 1.536c.027.06.05.107-.049.137zm22.707-2.1c.015.124-.039.156-.16.16-.468.013-.468.018-.468.5 0 .29-.004.581.002.871.002.112-.035.145-.147.151-.499.027-.499.031-.499-.456 0-.283-.014-.566.005-.847.013-.197-.063-.248-.237-.224-.046.007-.096-.006-.141.003-.24.045-.28-.068-.28-.285 0-.204.067-.25.256-.238.242.016.485.003.728.003.244 0 .488.014.73-.004.186-.014.237.058.212.225a.54.54 0 000 .141zm-8.067 1.679c-.377 0-.752-.004-1.129.002-.12.002-.165-.034-.162-.158.007-.29.002-.58.002-.87 0-.282.007-.564-.002-.846-.005-.135.042-.17.173-.172.467-.008.467-.013.467.459 0 .298.01.596-.004.893-.008.161.052.198.2.19.21-.01.422.003.634-.004.12-.005.16.03.162.157.006.349.013.349-.341.349zm1.281-.156c.004.124-.035.156-.157.16-.497.012-.497.017-.497-.48 0-.455.004-.909-.003-1.362-.002-.14.018-.208.187-.208.468.002.468-.007.468.459v.586c0 .282-.006.564.002.845zM9.958 10.39c-.39.141-.798.138-1.205.136-.122 0-.113-.074-.113-.155v-.986c0-.32.002-.642-.001-.962 0-.094 0-.166.13-.163.383.01.767.001 1.139.117.489.152.744.464.757.925.016.56-.209.908-.707 1.088z"/><path d="M9.958 10.39c-.39.141-.798.138-1.205.136-.122 0-.113-.074-.113-.155v-.986c0-.32.002-.642-.001-.962 0-.094 0-.166.13-.163.383.01.767.001 1.139.117.489.152.744.464.757.925.016.56-.209.908-.707 1.088z"/></g><defs><clipPath id="clip0_4339_15081"><path fill="#fff" transform="translate(.541)" d="M0 0h54.621v21H0z"/></clipPath></defs></svg>