<svg width="26" height="25" fill="none" xmlns="http://www.w3.org/2000/svg"><g clip-path="url(#clip0_4339_15165)" fill="#898989"><path d="M10.395 3.495L8.042 9.11H6.506L5.348 4.63c-.07-.275-.131-.376-.344-.494-.35-.19-.926-.367-1.433-.477l.034-.163h2.47c.315 0 .6.21.671.572l.611 3.249L8.87 3.495h1.526zm6.014 3.782c.006-1.481-2.048-1.564-2.034-2.226.005-.201.196-.416.616-.47a2.748 2.748 0 011.432.251l.255-1.19c-.35-.127-.8-.248-1.359-.248-1.435 0-2.445.763-2.453 1.856-.009.808.721 1.259 1.271 1.528.567.275.757.452.754.697-.004.376-.452.543-.868.55-.732.01-1.155-.198-1.492-.356L12.267 8.9c.34.156.966.29 1.615.298 1.524 0 2.523-.755 2.527-1.921zM20.2 9.109h1.343L20.37 3.495h-1.239a.661.661 0 00-.618.412l-2.18 5.202h1.526l.303-.839h1.863l.175.839zM18.579 7.12l.765-2.109.44 2.109h-1.205zm-6.11-3.625l-1.2 5.614H9.817l1.2-5.614h1.453z"/><path fill-rule="evenodd" clip-rule="evenodd" d="M25.512 12.5h-25V25h25V12.5zM6.337 19.423c.164.097.42.18.686.18.328 0 .512-.155.512-.386 0-.214-.142-.34-.5-.47-.47-.165-.77-.417-.77-.822 0-.467.386-.815 1.005-.815.307 0 .53.067.677.139l-.123.42a1.24 1.24 0 00-.568-.135c-.328 0-.467.173-.467.341 0 .218.164.32.543.462.492.19.727.437.727.841 0 .458-.344.85-1.072.85-.303 0-.613-.085-.77-.177l.12-.428zm2.667-.695h1.068v-.42H9.004v-.732h1.132v-.425h-1.65v2.835H10.2v-.424H9.004v-.834zm3.638 1.175c-.122.06-.391.126-.736.126-.9 0-1.447-.563-1.447-1.425 0-.933.652-1.494 1.518-1.494.34 0 .58.067.685.122l-.11.412a1.384 1.384 0 00-.555-.11c-.576 0-.992.363-.992 1.043 0 .622.36 1.018.988 1.018.206 0 .425-.042.563-.101l.086.409zm.914-1.099V17.15h-.517v1.624c0 .892.425 1.258 1.081 1.258.682 0 1.131-.387 1.131-1.262v-1.618h-.517v1.652c0 .556-.224.812-.598.812-.35 0-.58-.256-.58-.812zm2.245-1.61c.197-.037.484-.063.783-.063.408 0 .682.067.875.228.155.13.244.328.244.572a.745.745 0 01-.518.707v.012c.206.076.328.274.395.547l.058.226c.066.26.122.48.165.564h-.53c-.041-.084-.113-.315-.19-.669-.084-.37-.214-.487-.508-.496h-.261v1.165H15.8v-2.792zm.513 1.25h.306c.35 0 .564-.186.564-.468 0-.307-.215-.454-.55-.454-.165 0-.27.012-.32.025v.896zm2.356.284h1.068v-.42H18.67v-.732h1.132v-.425h-1.65v2.835h1.713v-.424H18.67v-.834z"/></g><defs><clipPath id="clip0_4339_15165"><path fill="#fff" transform="translate(.512)" d="M0 0h25v25H0z"/></clipPath></defs></svg>