<svg width="42" height="21" fill="none" xmlns="http://www.w3.org/2000/svg"><path fill-rule="evenodd" clip-rule="evenodd" d="M26.395 17.505c-.958-.568-1.26-1.753-.655-2.652.604-.9 1.864-1.185 2.82-.616.454.236.958.473 1.462.615.504.143 1.058.19 1.562.19a6.175 6.175 0 004.08-1.563 5.168 5.168 0 001.663-3.837c0-1.468-.655-2.842-1.663-3.837-1.058-.995-2.468-1.563-4.08-1.563a6.32 6.32 0 00-3.225.9c-.957.568-1.662 1.421-2.116 2.463v.048l-.503 1.184c0 .094-.05.142-.101.237l-4.08 10.184c-.152.426-.454.758-.908.994-.957.521-2.216.19-2.77-.71L14.554 14l-3.476 5.542c-.201.379-.554.663-1.008.805-1.057.38-2.216-.095-2.62-1.09L.652 3.154c-.404-.995.1-2.085 1.158-2.51 1.058-.38 2.217.094 2.62 1.089L9.72 14.19l3.174-5.02c.554-.9 1.813-1.232 2.77-.664.353.19.605.474.807.805l2.871 4.785 2.52-6.348c.05-.142.05-.284.1-.379 0-.142.05-.284.05-.426 0-.568-.15-1.09-.453-1.563-.302-.474-.705-.9-1.209-1.184a1.85 1.85 0 01-.705-2.606c.554-.9 1.813-1.184 2.821-.663a7.103 7.103 0 012.368 2.132 8.49 8.49 0 011.31-.995A10.381 10.381 0 0131.634.5c2.72 0 5.19 1.042 6.953 2.7 1.763 1.658 2.871 3.979 2.871 6.537s-1.108 4.879-2.871 6.536c-1.764 1.658-4.232 2.7-6.953 2.7a10.11 10.11 0 01-2.67-.378c-.957-.285-1.814-.616-2.57-1.09zM10.22 3.341c-.504-.947-.1-2.084.907-2.558 1.008-.474 2.217-.095 2.72.853l1.36 2.558c.505.947.101 2.084-.906 2.557-1.008.474-2.217.095-2.72-.852L10.22 3.34z" fill="#898989"/></svg>