<svg width="24" height="24" fill="none" xmlns="http://www.w3.org/2000/svg"><path d="M12.003 1.944h-.005C6.453 1.944 1.944 6.454 1.944 12c0 2.2.71 4.238 1.915 5.894L2.606 21.63l3.865-1.236a9.969 9.969 0 005.532 1.662c5.544 0 10.053-4.512 10.053-10.056 0-5.545-4.509-10.056-10.053-10.056z" fill="#000"/><path d="M17.853 16.144c-.242.685-1.205 1.253-1.973 1.42-.526.111-1.212.2-3.522-.758C9.403 15.582 7.5 12.58 7.35 12.384c-.142-.194-1.194-1.59-1.194-3.033 0-1.443.733-2.145 1.028-2.447.243-.248.644-.36 1.029-.36.124 0 .236.006.337.01.295.013.443.03.638.497.243.585.833 2.028.904 2.176.072.148.143.35.043.544-.095.201-.178.29-.326.461-.148.171-.29.302-.437.486-.136.16-.29.33-.119.626.171.289.762 1.253 1.632 2.027 1.123 1 2.033 1.319 2.358 1.454.243.101.532.077.709-.111.225-.243.503-.645.786-1.041.2-.284.455-.32.721-.219.272.094 1.708.805 2.004.952.295.148.49.218.562.343.07.124.07.709-.173 1.395z" fill="#FAFAFA"/></svg>