<svg width="56" height="40" fill="none" xmlns="http://www.w3.org/2000/svg"><path d="M0 6a6 6 0 016-6h36a6 6 0 016 6v25a6 6 0 01-6 6H6a6 6 0 01-6-6V6z" fill="#6A2CC7"/><rect y="4" width="53" height="36" rx="6" fill="#8B3FFD"/><path d="M43 18a2 2 0 012-2h9a2 2 0 012 2v7a2 2 0 01-2 2h-9a2 2 0 01-2-2v-7z" fill="#B889FF"/><path fill-rule="evenodd" clip-rule="evenodd" d="M6 0a6 6 0 00-6 6v4h8V4H6a2 2 0 110-4z" fill="#8B3FFD"/><path d="M11 15h8v14.5h-3.5L11 15z" fill="#fff"/><path fill-rule="evenodd" clip-rule="evenodd" d="M29 32c5.523 0 10-4.477 10-10s-4.477-10-10-10-10 4.477-10 10 4.477 10 10 10zm0-6a4 4 0 100-8 4 4 0 000 8z" fill="#fff"/></svg>