<svg width="56" height="40" fill="none" xmlns="http://www.w3.org/2000/svg"><rect width="56" height="40" rx="8" fill="url(#paint0_linear_4379_13806)"/><path d="M23.127 16.16l-4.168 9.702h-2.724l-2.061-7.747c-.118-.483-.237-.644-.616-.85-.616-.323-1.658-.644-2.558-.828l.071-.276h4.382a1.18 1.18 0 011.184.988l1.09 5.61 2.7-6.598h2.7zm10.73 6.552c0-2.551-3.648-2.712-3.624-3.838 0-.345.355-.713 1.09-.805.379-.046 1.397-.092 2.558.437l.45-2.07C33.715 16.23 32.91 16 31.915 16c-2.558 0-4.358 1.31-4.358 3.218-.024 1.403 1.279 2.184 2.25 2.644 1.018.483 1.35.782 1.35 1.195 0 .644-.805.943-1.54.943-1.302.023-2.06-.345-2.652-.62l-.474 2.114c.616.276 1.729.506 2.866.506 2.7.023 4.477-1.288 4.5-3.288zm6.75 3.15H43l-2.084-9.701h-2.203a1.19 1.19 0 00-1.113.712l-3.885 8.989h2.724l.545-1.448H40.3l.308 1.448zm-2.889-3.425l1.35-3.655.782 3.655h-2.132zM26.822 16.16l-2.131 9.7h-2.582l2.132-9.7h2.581z" fill="#fff"/><defs><linearGradient id="paint0_linear_4379_13806" x1="65.5" y1="-5" x2="-30.5" y2="65" gradientUnits="userSpaceOnUse"><stop stop-color="#FF8CC3"/><stop offset="1" stop-color="#926CFF"/></linearGradient></defs></svg>