<svg width="56" height="40" fill="none" xmlns="http://www.w3.org/2000/svg"><path d="M0 6a6 6 0 016-6h36a6 6 0 016 6v25a6 6 0 01-6 6H6a6 6 0 01-6-6V6z" fill="#1A4F8E"/><rect y="4" width="53" height="36" rx="6" fill="#1C83FF"/><path d="M43 18a2 2 0 012-2h9a2 2 0 012 2v7a2 2 0 01-2 2h-9a2 2 0 01-2-2v-7z" fill="#81BAFF"/><path fill-rule="evenodd" clip-rule="evenodd" d="M6 0a6 6 0 00-6 6v4h8V4H6a2 2 0 110-4z" fill="#1C83FF"/><path d="M27.23 26.877c-.654-.384-.86-1.205-.453-1.828.403-.624 1.264-.821 1.918-.432a4.147 4.147 0 002.079.563 4.04 4.04 0 002.783-1.097 3.653 3.653 0 001.15-2.654 3.672 3.672 0 00-1.15-2.654 4.017 4.017 0 00-2.783-1.098c-.801 0-1.563.23-2.202.643-.64.413-1.15.999-1.45 1.702l-.015.033-.33.84a.794.794 0 01-.059.15l-2.787 7.089a1.34 1.34 0 01-.625.694c-.668.361-1.519.136-1.897-.506l-2.277-3.84-2.365 3.849c-.152.248-.388.45-.688.563-.718.272-1.524-.066-1.809-.746L9.6 16.955c-.286-.684.063-1.453.781-1.725s1.524.065 1.81.745l3.613 8.66 2.153-3.502c.389-.633 1.244-.848 1.908-.473.24.136.423.328.54.548l1.967 3.315 1.736-4.421a1.975 1.975 0 00.078-.587c0-.393-.108-.773-.3-1.097a2.278 2.278 0 00-.825-.816c-.664-.375-.876-1.195-.482-1.824.398-.633 1.253-.834 1.912-.46a5.006 5.006 0 011.618 1.469c.28-.254.58-.488.894-.69A6.946 6.946 0 0130.77 15c1.859 0 3.545.717 4.76 1.88 1.219 1.163 1.971 2.767 1.971 4.54 0 1.772-.752 3.38-1.971 4.538a6.873 6.873 0 01-4.76 1.88 6.984 6.984 0 01-1.843-.248 6.73 6.73 0 01-1.696-.713zm-11.047-9.819c-.345-.656-.064-1.453.624-1.781.688-.329 1.524-.061 1.868.595l.934 1.782c.344.656.064 1.454-.624 1.787-.688.328-1.524.06-1.868-.596l-.934-1.787z" fill="#fff"/></svg>